# xmcd
#
# Track frame offsets:
#	150
#	15963
#	32582
#	52683
#	69632
#	86547
#	109356
#	125787
#	137606
#	154023
#	170068
#	188366
#	209183
#	239031
#
# Disc length: 3344 seconds
#
# Revision: 3
# Processed by: cddbd v1.5.1PL0 Copyright (c) Steve Scherf et al.
# Submitted via: audiograbber 1.83.01
#
DISCID=c00d0e0e
DTITLE=Missing Fingers - Time On Our Hands
DYEAR=2004
DGENRE=Alternative
TTITLE0=Bag of Bones
TTITLE1=Heroes
TTITLE2=Falling Down
TTITLE3=Turner Lake
TTITLE4=Reserve not Met
TTITLE5=Everything about You
TTITLE6=Ocean
TTITLE7=Wormhole
TTITLE8=Out of Time
TTITLE9=Do you need Me
TTITLE10=All we Are
TTITLE11=These Days
TTITLE12=Cinaday
TTITLE13=. 
EXTD=
EXTT0=
EXTT1=
EXTT2=
EXTT3=
EXTT4=
EXTT5=
EXTT6=
EXTT7=
EXTT8=
EXTT9=
EXTT10=
EXTT11=
EXTT12=
EXTT13=
PLAYORDER=
